<svg width="64" height="64" viewBox="0 0 64 64" fill="none" xmlns="http://www.w3.org/2000/svg">
<rect width="64" height="64" fill="#F2F8FF"/>
<path d="M21.3333 44.0001H34.16C34.9294 44.0005 35.6898 43.8342 36.3889 43.5127C37.0879 43.1911 37.7089 42.7219 38.2093 42.1374L45.012 34.2014C45.1544 34.0355 45.2539 33.8372 45.3016 33.6238C45.3493 33.4104 45.3438 33.1885 45.2856 32.9778C45.2274 32.767 45.1182 32.5738 44.9677 32.4152C44.8173 32.2565 44.6301 32.1373 44.4227 32.0681L41.7987 31.1934C41.1645 30.9873 40.4892 30.9406 39.8327 31.0576C39.1762 31.1746 38.5586 31.4516 38.0347 31.8641L33.788 35.2601L32.9653 33.6134C32.5246 32.7258 31.8441 31.9793 31.001 31.4585C30.1578 30.9377 29.1857 30.6635 28.1947 30.6668H21.3333C19.8627 30.6668 18.6667 31.8628 18.6667 33.3334V41.3334C18.6667 42.8041 19.8627 44.0001 21.3333 44.0001ZM21.3333 33.3334H28.1947C29.212 33.3334 30.1253 33.8974 30.58 34.8068L31.176 36.0001H25.3333V38.6668H33.352C33.5571 38.664 33.7588 38.6138 33.9413 38.5201L33.9453 38.5188L33.9507 38.5161H33.9547L33.9573 38.5148H33.9627L33.964 38.5134C33.976 38.5174 33.968 38.5121 33.968 38.5121C33.9813 38.5121 33.9707 38.5108 33.9707 38.5108H33.972L33.9747 38.5094L33.9787 38.5081L33.9813 38.5068L33.984 38.5054L33.988 38.5041L33.9907 38.5028C33.9947 38.5028 33.992 38.5014 33.9933 38.5014L33.9973 38.4988L34 38.4974L34.0027 38.4961L34.0067 38.4948L34.0093 38.4934H34.0107L34.0133 38.4921H34.0147L34.0173 38.4908L34.02 38.4894C34.032 38.4881 34.024 38.4881 34.024 38.4881L34.0267 38.4868C34.078 38.4557 34.1271 38.421 34.1733 38.3828L39.7013 33.9601C40.0507 33.6828 40.532 33.5961 40.9547 33.7374L41.6973 33.9854L36.1867 40.4161C35.9332 40.7039 35.6214 40.9346 35.272 41.0927C34.9226 41.2509 34.5435 41.3329 34.16 41.3334H21.3333V33.3334ZM37.3333 18.6668H37.3107C37.0933 18.6694 35.9693 18.7188 34.6667 19.6068C33.3987 18.7428 32.3013 18.6734 32.0427 18.6681L32.0027 18.6668H31.9973C30.9293 18.6668 29.924 19.0841 29.172 19.8374C28.4173 20.5934 28 21.5974 28 22.6668C28 23.7361 28.4173 24.7401 29.148 25.4721L33.7 30.2534C33.8252 30.3834 33.9754 30.4868 34.1416 30.5574C34.3077 30.628 34.4864 30.6643 34.6669 30.6642C34.8475 30.6641 35.0261 30.6275 35.1922 30.5567C35.3582 30.4859 35.5083 30.3823 35.6333 30.2521L40.1613 25.4948C40.9173 24.7401 41.3333 23.7361 41.3333 22.6668C41.3333 21.5974 40.916 20.5934 40.1627 19.8388C39.7924 19.4662 39.352 19.1707 38.8668 18.9695C38.3815 18.7683 37.8612 18.6654 37.336 18.6668H37.3333ZM38.6667 22.6668C38.6667 23.0228 38.528 23.3574 38.252 23.6334L34.6667 27.4001L31.0573 23.6094C30.8053 23.3574 30.6667 23.0228 30.6667 22.6668C30.6667 22.3108 30.8053 21.9761 31.0587 21.7228C31.2998 21.4775 31.6281 21.3375 31.972 21.3334C32.0053 21.3348 32.6413 21.3761 33.3947 21.9801C33.5027 22.0668 33.612 22.1654 33.724 22.2761L34.6667 23.2188L35.6093 22.2761C35.7213 22.1654 35.8307 22.0668 35.9387 21.9801C36.644 21.4134 37.24 21.3428 37.3413 21.3348C37.5151 21.3347 37.6872 21.3691 37.8476 21.4359C38.008 21.5028 38.1536 21.6007 38.276 21.7241C38.528 21.9761 38.6667 22.3108 38.6667 22.6668Z" fill="#485BFF"/>
</svg>
