<svg width="18" height="21" viewBox="0 0 18 21" fill="none" xmlns="http://www.w3.org/2000/svg">
<path d="M10.7146 13.228H6.04563V15.577H13.2376V17.549H6.04563V21H3.37763V17.549H0.912625V15.577H3.37763V13.228H0.912625V10.792H3.37763V0.699999H6.04563H10.7146C12.474 0.699999 13.9723 1.31867 15.2096 2.556C16.447 3.774 17.0656 5.253 17.0656 6.993C17.0656 8.733 16.447 10.212 15.2096 11.43C13.9916 12.6287 12.4933 13.228 10.7146 13.228ZM6.04563 3.223V10.792H10.7146C11.72 10.792 12.5803 10.4247 13.2956 9.69C14.0303 8.936 14.3976 8.037 14.3976 6.993C14.3976 5.949 14.04 5.05967 13.3246 4.325C12.6093 3.59033 11.7393 3.223 10.7146 3.223H6.04563Z" fill="#0069FF"/>
</svg>
