<svg width="64" height="64" viewBox="0 0 64 64" fill="none" xmlns="http://www.w3.org/2000/svg">
<rect width="64" height="64" fill="#F2F8FF"/>
<path d="M32 24C25.3733 24 18.6667 26.0613 18.6667 30V35.3333C18.6667 39.272 25.3733 41.3333 32 41.3333C38.6267 41.3333 45.3333 39.272 45.3333 35.3333V30C45.3333 26.0613 38.6267 24 32 24ZM21.3333 35.3333V33.7373C22.1778 34.2156 23.072 34.6001 24 34.884V37.392C22.2507 36.7067 21.3333 35.8907 21.3333 35.3333ZM37.3333 35.5307V38.1587C36.1773 38.3973 34.844 38.572 33.3333 38.636V35.9693C34.6752 35.9159 36.0118 35.7693 37.3333 35.5307ZM30.6667 38.6373C29.3227 38.5859 27.985 38.4262 26.6667 38.16V35.532C27.9453 35.764 29.296 35.9147 30.6667 35.972V38.6373ZM40 37.392V34.884C40.9282 34.6007 41.8225 34.2161 42.6667 33.7373V35.3333C42.6667 35.8907 41.7507 36.7067 40 37.392ZM32 33.3333C25.0973 33.3333 21.3333 31.132 21.3333 30C21.3333 28.868 25.0973 26.6667 32 26.6667C38.9027 26.6667 42.6667 28.868 42.6667 30C42.6667 31.132 38.9027 33.3333 32 33.3333Z" fill="#0069FF"/>
</svg>
