<svg width="64" height="64" viewBox="0 0 64 64" fill="none" xmlns="http://www.w3.org/2000/svg">
<rect width="64" height="64" fill="#F2F8FF"/>
<path d="M24.3064 25.1138C25.0826 25.1138 25.7952 25.2466 26.4442 25.5122C27.1059 25.7778 27.6658 26.1951 28.1239 26.7642C28.5947 27.3207 28.9574 28.0289 29.2119 28.8889C29.4791 29.7489 29.6127 30.7733 29.6127 31.9621C29.6127 33.1635 29.4855 34.1942 29.231 35.0542C28.9765 35.9142 28.6201 36.6224 28.162 37.1789C27.7039 37.7353 27.144 38.1463 26.4823 38.4119C25.8334 38.6775 25.108 38.8103 24.3064 38.8103C23.5047 38.8103 22.773 38.6775 22.1113 38.4119C21.4623 38.1463 20.9024 37.7353 20.4316 37.1789C19.9735 36.6224 19.6172 35.9142 19.3627 35.0542C19.1209 34.1942 19 33.1635 19 31.9621C19 30.7733 19.1273 29.7489 19.3818 28.8889C19.6363 28.0289 19.9989 27.3207 20.4697 26.7642C20.9406 26.1951 21.5005 25.7778 22.1495 25.5122C22.7984 25.2466 23.5174 25.1138 24.3064 25.1138ZM24.3064 36.3821C25.1208 36.3821 25.757 36.0407 26.2151 35.3577C26.6732 34.6748 26.9023 33.5429 26.9023 31.9621C26.9023 30.3939 26.6732 29.2683 26.2151 28.5854C25.757 27.8898 25.1208 27.542 24.3064 27.542C23.4792 27.542 22.8366 27.8898 22.3785 28.5854C21.9331 29.2683 21.7104 30.3939 21.7104 31.9621C21.7104 33.5429 21.9331 34.6748 22.3785 35.3577C22.8366 36.0407 23.4792 36.3821 24.3064 36.3821Z" fill="#485BFF"/>
<path d="M34.6238 31.5637C34.0893 31.5637 33.6185 31.4815 33.2113 31.3171C32.8041 31.14 32.4605 30.9061 32.1806 30.6152C31.9006 30.3117 31.6907 29.9639 31.5507 29.5718C31.4107 29.1671 31.3407 28.7371 31.3407 28.2818C31.3407 27.8013 31.4107 27.365 31.5507 26.9729C31.7034 26.5682 31.9134 26.2204 32.1806 25.9295C32.4605 25.6387 32.8041 25.411 33.2113 25.2466C33.6185 25.0822 34.0893 25 34.6238 25C35.1455 25 35.61 25.0822 36.0172 25.2466C36.4244 25.411 36.7616 25.6387 37.0288 25.9295C37.3088 26.2204 37.5187 26.5682 37.6587 26.9729C37.7987 27.3776 37.8687 27.8139 37.8687 28.2818C37.8687 28.7371 37.7987 29.1671 37.6587 29.5718C37.5187 29.9639 37.3088 30.3117 37.0288 30.6152C36.7616 30.9061 36.4244 31.14 36.0172 31.3171C35.61 31.4815 35.1455 31.5637 34.6238 31.5637ZM32.9441 38.7154L41.6099 25.2846H44.263L35.6163 38.7154H32.9441ZM34.6238 26.9539C34.1784 26.9539 33.8667 27.0867 33.6885 27.3523C33.5231 27.6179 33.4404 27.9277 33.4404 28.2818C33.4404 28.6486 33.5231 28.9648 33.6885 29.2304C33.8667 29.4833 34.1784 29.6098 34.6238 29.6098C35.0564 29.6098 35.3491 29.477 35.5018 29.2114C35.6672 28.9458 35.75 28.636 35.75 28.2818C35.75 27.9277 35.6672 27.6179 35.5018 27.3523C35.3491 27.0867 35.0564 26.9539 34.6238 26.9539ZM42.7169 39C42.1825 39 41.7117 38.9115 41.3045 38.7344C40.91 38.57 40.5728 38.3424 40.2928 38.0515C40.0129 37.748 39.8029 37.4002 39.6629 37.0081C39.5229 36.6034 39.453 36.1734 39.453 35.7182C39.453 35.2376 39.5229 34.7949 39.6629 34.3902C39.8029 33.9855 40.0129 33.6378 40.2928 33.3469C40.5728 33.056 40.9163 32.8284 41.3235 32.664C41.7307 32.4995 42.1952 32.4173 42.7169 32.4173C43.2514 32.4173 43.7222 32.4995 44.1294 32.664C44.5366 32.8284 44.8738 33.056 45.1411 33.3469C45.421 33.6378 45.631 33.9855 45.771 34.3902C45.9237 34.7949 46 35.2376 46 35.7182C46 36.1734 45.9237 36.6034 45.771 37.0081C45.631 37.4002 45.421 37.748 45.1411 38.0515C44.8738 38.3424 44.5366 38.57 44.1294 38.7344C43.7222 38.9115 43.2514 39 42.7169 39ZM42.7169 34.3713C42.3097 34.3713 42.0107 34.5041 41.8198 34.7696C41.6417 35.0352 41.5526 35.3514 41.5526 35.7182C41.5526 36.0849 41.6353 36.4011 41.8007 36.6667C41.9789 36.9196 42.2843 37.0461 42.7169 37.0461C43.1623 37.0461 43.4613 36.9133 43.614 36.6477C43.7795 36.3821 43.8622 36.0723 43.8622 35.7182C43.8622 35.3514 43.7795 35.0352 43.614 34.7696C43.4613 34.5041 43.1623 34.3713 42.7169 34.3713Z" fill="#485BFF"/>
</svg>
