<svg width="167" height="52" viewBox="0 0 167 52" fill="none" xmlns="http://www.w3.org/2000/svg">
<path d="M72.0938 25.5446C69.0868 25.5446 66.5936 24.5693 64.6143 22.6186C62.635 20.6492 61.6454 18.2203 61.6454 15.3318C61.6454 12.4433 62.635 10.0237 64.6143 8.07308C66.5936 6.10367 69.0868 5.11896 72.0938 5.11896C74.3966 5.11896 76.433 5.78481 78.203 7.11651C79.992 8.42945 81.1434 10.1363 81.6572 12.237H78.203C77.7843 11.0366 77.0135 10.08 75.8906 9.36727C74.7678 8.63577 73.5021 8.27002 72.0938 8.27002C69.9622 8.27002 68.2304 8.93587 66.8981 10.2676C65.585 11.5993 64.9284 13.2873 64.9284 15.3318C64.9284 17.3762 65.585 19.0643 66.8981 20.396C68.2304 21.7277 69.9622 22.3936 72.0938 22.3936C73.5021 22.3936 74.7678 22.0372 75.8906 21.3244C77.0135 20.5929 77.7843 19.627 78.203 18.4266H81.6572C81.1624 20.5085 80.0205 22.2154 78.2315 23.5471C76.4425 24.8788 74.3966 25.5446 72.0938 25.5446Z" fill="#333333"/>
<path d="M95.5122 5.48471V8.5795H90.4593V25.1789H87.1763V8.5795H82.0948V5.48471H90.4593H95.5122Z" fill="#333333"/>
<path d="M109.186 5.48471H112.498L106.303 20.1147C104.781 23.6971 102.316 25.3852 98.9093 25.1789V22.1685C100.032 22.281 100.936 22.1122 101.621 21.6621C102.306 21.2119 102.868 20.471 103.306 19.4394L96.6541 5.48471H99.9656L104.819 15.8663L109.186 5.48471Z" fill="#333333"/>
<path d="M127.351 22.1403H129.492V25.1789V29.2302H126.209V25.1789H114.79V29.2302H111.507V24.166V22.1403H113.305C114.504 20.6398 115.104 18.3609 115.104 15.3037V5.48471H127.351V22.1403ZM116.902 22.1403H124.068V8.52323H118.387V15.3599C118.387 18.3047 117.892 20.5648 116.902 22.1403Z" fill="#333333"/>
<path d="M143.332 25.1789V11.815L134.91 25.1789H132.341V5.48471H135.624V18.8486L144.045 5.48471H146.615V25.1789H143.332Z" fill="#333333"/>
<path d="M164.59 5.48471V25.1789H161.307V18.0046H158.966L152.885 25.1789H148.888L155.34 17.7232C153.989 17.3481 152.885 16.6166 152.029 15.5287C151.172 14.4221 150.744 13.1842 150.744 11.815C150.744 10.0519 151.372 8.56075 152.628 7.34159C153.903 6.10367 155.445 5.48471 157.253 5.48471H164.59ZM157.31 15.1067H161.307V8.52323H157.31C156.396 8.52323 155.616 8.84209 154.969 9.47981C154.341 10.1175 154.027 10.8959 154.027 11.815C154.027 12.734 154.35 13.5124 154.998 14.1501C155.645 14.7879 156.415 15.1067 157.31 15.1067Z" fill="#333333"/>
<path d="M68.6282 33.9005C69.8938 33.9005 70.9663 34.3338 71.8455 35.2003C72.7248 36.0537 73.1644 37.0975 73.1644 38.3317C73.1644 39.5527 72.7248 40.5965 71.8455 41.4631C70.9663 42.3296 69.8938 42.7629 68.6282 42.7629H65.7706V47.6864H63.4725V33.9005H65.7706H68.6282ZM68.6282 40.6359C69.2544 40.6359 69.7806 40.4127 70.2069 39.9663C70.6465 39.5199 70.8664 38.975 70.8664 38.3317C70.8664 37.6883 70.6465 37.1435 70.2069 36.6971C69.7806 36.2507 69.2544 36.0275 68.6282 36.0275H65.7706V40.6359H68.6282Z" fill="#333333"/>
<path d="M77.4601 45.52H83.3551V47.6864H75.9613H75.162V33.9005H77.4601H83.2552V36.0669H77.4601V39.6512H82.7556V41.7782H77.4601V45.52Z" fill="#333333"/>
<path d="M98.8352 33.9005V47.6864H96.5371V37.6424L93.04 45.4216H91.2415L87.7444 37.6424V47.6864H85.4464V33.9005H87.7444H88.1241L92.1408 42.8023L96.1574 33.9005H98.8352Z" fill="#333333"/>
<path d="M113.314 45.8745C111.916 47.2531 110.204 47.9424 108.179 47.9424C106.154 47.9424 104.435 47.2531 103.023 45.8745C101.624 44.4828 100.925 42.7891 100.925 40.7934C100.925 38.7978 101.624 37.1106 103.023 35.7321C104.435 34.3403 106.154 33.6445 108.179 33.6445C110.204 33.6445 111.916 34.3403 113.314 35.7321C114.727 37.1106 115.433 38.7978 115.433 40.7934C115.433 42.7891 114.727 44.4828 113.314 45.8745ZM104.642 44.3384C105.601 45.2706 106.78 45.7367 108.179 45.7367C109.578 45.7367 110.75 45.2706 111.696 44.3384C112.655 43.3931 113.135 42.2114 113.135 40.7934C113.135 39.3755 112.655 38.2004 111.696 37.2682C110.75 36.3229 109.578 35.8502 108.179 35.8502C106.78 35.8502 105.601 36.3229 104.642 37.2682C103.696 38.2004 103.223 39.3755 103.223 40.7934C103.223 42.2114 103.696 43.3931 104.642 44.3384Z" fill="#333333"/>
<path d="M125.123 33.9005H127.421V47.6864H125.123V41.6797H119.827V47.6864H117.529V33.9005H119.827V39.5133H125.123V33.9005Z" fill="#333333"/>
<path d="M138.507 33.9005V36.0669H134.97V47.6864H132.672V36.0669H129.115V33.9005H134.97H138.507Z" fill="#333333"/>
<path d="M151.095 45.8745C149.697 47.2531 147.985 47.9424 145.96 47.9424C143.935 47.9424 142.216 47.2531 140.804 45.8745C139.405 44.4828 138.706 42.7891 138.706 40.7934C138.706 38.7978 139.405 37.1106 140.804 35.7321C142.216 34.3403 143.935 33.6445 145.96 33.6445C147.985 33.6445 149.697 34.3403 151.095 35.7321C152.508 37.1106 153.214 38.7978 153.214 40.7934C153.214 42.7891 152.508 44.4828 151.095 45.8745ZM142.423 44.3384C143.382 45.2706 144.561 45.7367 145.96 45.7367C147.359 45.7367 148.531 45.2706 149.477 44.3384C150.436 43.3931 150.916 42.2114 150.916 40.7934C150.916 39.3755 150.436 38.2004 149.477 37.2682C148.531 36.3229 147.359 35.8502 145.96 35.8502C144.561 35.8502 143.382 36.3229 142.423 37.2682C141.477 38.2004 141.004 39.3755 141.004 40.7934C141.004 42.2114 141.477 43.3931 142.423 44.3384Z" fill="#333333"/>
<path d="M164.502 39.1982C165.275 39.5658 165.881 40.1107 166.321 40.8328C166.774 41.555 167 42.3624 167 43.2552C167 44.5025 166.58 45.5529 165.741 46.4063C164.902 47.2597 163.849 47.6864 162.584 47.6864H155.809H155.31V33.9005H157.608H161.045C162.204 33.9005 163.15 34.2419 163.883 34.9246C164.629 35.6073 165.002 36.4673 165.002 37.5045C165.002 38.0954 164.835 38.6599 164.502 39.1982ZM161.045 36.0275H157.608V38.7256H162.264C162.557 38.4105 162.704 38.0363 162.704 37.603C162.704 37.1435 162.55 36.7693 162.244 36.4804C161.951 36.1785 161.551 36.0275 161.045 36.0275ZM162.284 45.5594C163.043 45.5594 163.636 45.3297 164.063 44.8701C164.489 44.4106 164.702 43.8395 164.702 43.1567C164.702 42.4609 164.489 41.8898 164.063 41.4434C163.65 40.9838 163.063 40.7541 162.304 40.7541H157.608V45.5594H162.284Z" fill="#333333"/>
<g clip-path="url(#clip0_838_3)">
<path fill-rule="evenodd" clip-rule="evenodd" d="M6.29414 23.7918C6.10812 23.7289 5.2321 22.553 5.09799 22.3686C3.84765 20.65 3.14453 18.614 3.07557 16.5123C2.97614 13.6678 3.90149 10.8784 5.69282 8.62293C7.16583 6.72184 9.15364 5.07857 11.2972 3.66586C12.4229 2.95682 13.6319 2.38054 14.8986 1.94922C15.5808 1.714 16.2771 1.5194 16.9838 1.36653C17.3753 1.28059 17.7343 1.224 18.1172 1.1716C18.2772 1.14854 19.3176 1.0689 19.3414 1.05842H19.4539L20.0141 1.03536H20.1872C20.1872 1.03536 21.485 1.09405 21.6429 1.11082C24.5089 1.38749 27.5133 2.40196 29.9964 3.64699C32.4796 4.89202 35.497 7.00061 36.8597 9.12597C36.2951 9.09034 35.1725 8.49717 34.7291 8.26241C34.0723 7.89291 33.385 7.57673 32.6743 7.31711C30.5112 6.53111 30.3079 6.42631 28.0021 5.96518C24.1888 5.20433 20.8923 5.16031 17.3039 6.23138C14.2865 7.12637 11.4919 8.70048 9.78741 10.7127C9.01737 11.6202 8.00292 13.1252 8.00292 14.8816C7.99355 15.6869 8.248 16.4744 8.72969 17.1306C9.06496 17.5771 9.87825 18.3463 10.352 18.4868C10.6613 18.4071 11.1544 17.6043 11.3296 17.3004C11.6822 16.6926 11.4637 16.1812 11.2301 15.6236C10.9446 14.934 11.0138 14.519 11.2712 13.8672C11.4781 13.3747 11.73 12.9013 12.024 12.4523C13.1471 10.708 14.6667 9.23549 16.4668 8.14713C18.4135 6.93564 21.1346 6.67992 23.3344 6.60028C25.6433 6.52942 27.9425 6.92098 30.0881 7.75048C32.2337 8.57999 34.1796 9.82958 35.8041 11.4211C37.5648 13.1398 38.4387 14.0809 39.7538 16.1979C40.0025 16.6594 40.292 17.0991 40.619 17.5121C41.0516 17.9795 41.9168 17.8349 41.7005 17.0615C41.5577 16.5101 41.3763 15.9688 41.1576 15.4413C40.9413 14.9361 40.6428 14.4708 40.5801 13.8336C40.5173 13.1964 40.6709 13.4144 40.9543 13.6638C41.8195 14.3933 42.4987 15.8248 43.2968 16.768C43.5131 17.0196 44.188 17.684 44.5059 17.7657C44.5059 16.6863 44.4346 16.1371 44.1361 15.2799C43.6209 13.9449 42.8869 12.6992 41.9622 11.5909C41.7459 11.3163 41.5102 11.0648 41.2874 10.7986C41.0646 10.5324 40.7812 10.2872 40.5628 10.0294C40.0951 9.51802 39.589 9.04093 39.0487 8.60197C38.4971 8.1639 37.9866 7.72793 37.4199 7.28567C36.3233 6.43259 35.2569 5.4328 34.0175 4.71386C31.5798 3.28648 28.8306 1.62853 25.6964 0.865583C22.3459 0.0502338 19.0732 -0.303992 15.4696 0.312235C12.0088 0.903311 8.41173 3.03705 6.12542 4.81447C4.2263 6.28797 1.9335 9.01279 0.960146 11.3415C-0.316033 14.3953 -0.337663 18.0173 1.05316 20.9831C1.64582 22.2407 2.48074 23.5633 3.43247 24.4709C3.68771 24.714 3.91266 24.9655 4.18736 25.1835C4.37987 25.3365 4.78868 25.8354 5.12395 25.5671C5.41812 25.3282 6.29414 24.255 6.29414 23.7918Z" fill="#031B4E"/>
<path fill-rule="evenodd" clip-rule="evenodd" d="M38.2098 28.1287C38.4044 28.1538 39.2913 29.3863 39.4297 29.554C40.5437 31.0421 41.411 33.3268 41.4327 35.3369C41.4716 39.0426 40.3858 41.147 38.8933 43.2053C37.6258 44.9555 35.2162 46.9592 33.3387 48.1686C32.2252 48.878 31.0313 49.461 29.7805 49.9062C28.7532 50.2816 27.6893 50.5555 26.6052 50.7237C26.4689 50.7446 25.4502 50.8411 25.4328 50.8473L25.0586 50.8725H24.8986C20.8451 50.9522 17.3151 49.6359 14.7173 48.3762C13.3349 47.6961 12.0232 46.8889 10.8001 45.9657C10.2065 45.5154 9.64631 45.0251 9.12372 44.4985C8.80359 44.1883 7.82591 43.1655 7.6745 42.7945C8.23688 42.8175 9.42871 43.4589 9.83751 43.679C11.9563 44.7585 14.2283 45.5284 16.5796 45.9636C18.018 46.2466 20.4384 46.5673 22.0585 46.5317C26.5317 46.429 32.1144 44.3707 34.7338 41.1805C35.4909 40.2583 36.5205 38.8162 36.5075 37.0221C36.488 34.4691 34.3748 33.6496 34.1628 33.4043C33.8111 33.6934 33.5178 34.043 33.2976 34.4356C32.9688 34.9344 32.9039 35.274 33.1375 35.9279C33.3235 36.4415 33.5701 36.7663 33.4338 37.4371C33.3178 37.9166 33.1313 38.3775 32.8801 38.8058C32.1101 40.2897 30.6046 41.9498 29.2873 42.916C26.0428 45.3055 21.5264 46.0978 16.2941 44.7773C14.6274 44.3716 13.0494 43.6795 11.635 42.7337C10.8656 42.228 10.1234 41.6844 9.4114 41.1051C8.663 40.5161 8.09845 39.8601 7.42575 39.2187C6.78541 38.5666 6.20023 37.8657 5.67588 37.1227C5.13729 36.345 4.68522 35.5716 4.18123 34.7605C3.96493 34.4083 3.57559 33.9074 3.00455 34.2155C2.55897 34.4544 2.86396 34.9491 3.02835 35.6135C3.33549 36.8711 3.92383 36.9655 3.92383 38.506C3.69239 38.4453 3.04132 37.7033 2.87694 37.4958C2.3059 36.7747 1.81273 35.819 1.14652 35.0665C0.969157 34.8569 0.253199 34.1631 -0.0150146 34.1421C-0.0150146 36.104 0.571162 37.3889 1.33687 38.6192C2.07728 39.8139 2.9577 40.9217 3.96061 41.9204C6.07387 43.9682 8.30826 45.8106 10.9536 47.3533C14.8903 49.6589 20.5142 52.0064 25.4458 52.0064C30.9875 52.0064 34.1303 50.2668 38.3482 47.1856C40.3987 45.687 42.5163 42.9936 43.5827 40.5371C44.9411 37.4161 44.7832 33.92 43.4637 30.9101C42.883 29.6213 42.0782 28.4387 41.0844 27.4139C40.8313 27.1687 40.5739 26.9465 40.3252 26.7034C39.46 25.865 39.3713 26.4645 39.0447 26.7768C38.7891 27.0201 38.5778 27.3036 38.4196 27.6152C38.2963 27.8185 38.266 28.005 38.2098 28.1287Z" fill="#031B4E"/>
<path fill-rule="evenodd" clip-rule="evenodd" d="M19.4543 1.05837H19.3419C19.3181 1.05837 18.2776 1.14849 18.1176 1.17155C17.7347 1.22395 17.3757 1.28054 16.9842 1.36648C16.2775 1.51935 15.5812 1.71395 14.899 1.94917C13.6323 2.38048 12.4233 2.95677 11.2976 3.66581C9.15189 5.07852 7.16624 6.72179 5.69323 8.62288C3.90189 10.8784 2.97654 13.6678 3.07598 16.5123C3.14494 18.6139 3.84806 20.65 5.0984 22.3685C5.23251 22.553 6.10853 23.7288 6.29455 23.7917C6.3205 23.7519 6.7942 23.295 6.87207 23.2174C7.46264 22.6254 8.00298 21.9883 8.48784 21.3121C8.74957 20.9516 10.2853 18.7529 10.348 18.4762C9.87434 18.3358 9.05023 17.5666 8.72577 17.1201C8.2478 16.4662 7.99498 15.6828 8.00333 14.8816C8.00333 13.1356 9.02211 11.6307 9.79214 10.7231C11.4923 8.70043 14.2869 7.12632 17.3043 6.23133C20.8884 5.16026 24.1848 5.20428 27.9982 5.96513C30.304 6.42626 30.5008 6.53106 32.6703 7.31706C33.381 7.57668 34.0683 7.89286 34.7252 8.26236C35.1686 8.49921 36.2912 9.09029 36.8558 9.12592C35.4931 7.00266 32.4973 4.90455 29.9925 3.64694C27.4878 2.38933 24.5093 1.38744 21.6433 1.11077C21.4789 1.094 20.1941 1.0374 20.1876 1.03531H20.0145L19.4543 1.05837Z" fill="#FB9B36"/>
<path fill-rule="evenodd" clip-rule="evenodd" d="M34.1757 33.4081C34.392 33.6533 36.5009 34.4729 36.5204 37.0258C36.5333 38.82 35.5037 40.2621 34.7467 41.1843C32.1273 44.3745 26.5445 46.4244 22.0714 46.5354C20.4513 46.5711 18.0309 46.2504 16.5925 45.9674C14.2412 45.5322 11.9692 44.7623 9.85039 43.6828C9.43509 43.4732 8.24327 42.8213 7.68738 42.7983C7.84528 43.1692 8.81647 44.1921 9.1366 44.5023C9.65919 45.0289 10.2194 45.5191 10.8129 45.9695C12.0372 46.8891 13.3496 47.6928 14.7323 48.3695C17.3279 49.6271 20.8601 50.9455 24.9136 50.8658H25.0737L25.4479 50.8407C25.4652 50.8407 26.484 50.7379 26.6202 50.717C27.7033 50.552 28.7664 50.2817 29.7934 49.91C31.0442 49.4648 32.2381 48.8817 33.3516 48.1724C35.2204 46.963 37.6386 44.9592 38.9062 43.2091C40.3987 41.1508 41.4845 39.0464 41.4456 35.3406C41.4239 33.3368 40.5566 31.0459 39.4426 29.5577C39.315 29.388 38.4173 28.1576 38.2227 28.1324C38.0561 28.3861 37.3575 28.9918 37.0784 29.3146C36.3562 30.1567 35.6929 31.0446 35.0928 31.9723C34.762 32.4354 34.4559 32.9147 34.1757 33.4081Z" fill="#FFA300"/>
<path fill-rule="evenodd" clip-rule="evenodd" d="M15.0245 30.2517C15.0245 30.6709 15.7318 30.3229 16.1298 30.237C16.9452 30.0492 17.7944 30.0477 18.6105 30.2325C19.4266 30.4173 20.1872 30.7833 20.8322 31.3018C22.2815 32.4252 23.0126 33.1379 24.6608 34.1C25.1497 34.3717 25.6621 34.6017 26.1922 34.7874C26.7697 35.0117 28.9349 35.8669 29.5535 35.8669C29.7655 35.8573 29.9658 35.7699 30.1137 35.6223C30.2616 35.4747 30.3459 35.2782 30.3495 35.0725C30.3495 34.5401 29.0517 33.3244 28.5607 32.7564C28.3444 32.5112 28.1065 32.2932 27.9118 32.0459C27.2629 31.2703 25.6298 30.3208 24.6846 29.7738C22.8893 28.7258 21.0637 28.2772 20.179 26.0408C20.0389 25.699 19.938 25.3434 19.8783 24.9802C19.8199 24.561 19.8372 23.9846 19.4457 23.9846C19.2294 23.9846 18.4443 25.2422 18.2777 25.479C17.9035 25.9884 17.5682 26.5417 17.1962 27.049C16.915 27.3843 15.0245 30.0463 15.0245 30.2517Z" fill="#3C8DFF"/>
<path fill-rule="evenodd" clip-rule="evenodd" d="M14.1786 16.7996C14.1786 17.3864 14.9378 18.0048 15.3271 18.4617C16.917 20.3251 17.6178 20.87 19.8695 22.157C20.9056 22.748 22.5754 23.4146 23.2784 24.253C23.7716 24.8441 24.0419 25.1102 24.3599 25.9067C24.4985 26.2505 24.5965 26.6084 24.6519 26.9736C24.6995 27.3488 24.6973 27.9399 25.0845 27.9399C25.3592 27.9399 26.073 26.6823 26.2525 26.4454C26.6289 25.934 26.9728 25.3974 27.3492 24.8776C27.5958 24.5401 29.4862 21.8929 29.4862 21.6958C29.4862 21.1006 28.7746 21.8174 27.0485 21.8174C24.5351 21.8174 23.1551 20.1029 21.2646 18.7216C20.3901 18.0636 19.4199 17.5346 18.3856 17.1517C17.6502 16.8666 15.6321 16.0534 14.8924 16.0534C14.7019 16.0768 14.5261 16.1643 14.3955 16.3008C14.265 16.4372 14.1882 16.6138 14.1786 16.7996Z" fill="#3C8DFF"/>
<path fill-rule="evenodd" clip-rule="evenodd" d="M35.0021 27.8894L34.9523 27.8643L35.0021 27.8894ZM34.9523 27.8643L34.9264 27.8412L34.9523 27.8643ZM35.0021 27.8894C35.3027 27.967 36.0836 28.6251 36.5162 28.3443C36.6301 28.268 36.7101 28.1529 36.7402 28.0219C36.7703 27.8909 36.7482 27.7538 36.6784 27.6379C36.5313 27.4136 36.2999 27.2795 36.1701 27.0929C36.3864 27.1432 36.7952 27.399 37.0829 27.3528C37.3706 27.3067 37.5458 26.9609 37.6993 26.766C38.173 26.1581 38.2834 25.718 37.483 25.3826C36.3734 24.9047 35.2032 24.4687 34.059 24.0244C32.9515 23.6052 32.9061 23.4522 32.4562 24.0537C32.1166 24.5065 31.8268 24.999 31.485 25.4518C30.8166 26.3384 30.1634 27.3382 29.5383 28.2562C27.862 30.6918 28.0826 30.1426 28.9024 31.0796C29.2679 31.4988 30.7907 32.9764 31.2817 33.4522C31.4621 33.6722 31.7005 33.8409 31.9717 33.9406C32.4194 34.1334 32.4713 33.9804 32.7114 33.6681C33.0554 33.2154 33.4187 32.8025 33.78 32.3644C34.0568 32.0311 34.974 30.7169 35.2551 30.2684C35.4952 29.889 35.4714 29.7863 35.2313 29.4489C35.5536 29.4761 35.7115 29.5138 35.8976 29.2979C36.4059 28.7153 35.2378 28.2332 35.0021 27.8894Z" fill="#3C8DFF"/>
<path fill-rule="evenodd" clip-rule="evenodd" d="M9.60152 24.0812L9.52798 24.033L9.60152 24.0812ZM9.52798 24.033C9.25544 23.9617 8.4097 23.2868 8.01387 23.5698C7.33468 24.0456 8.15446 24.5193 8.36644 24.8274C8.11986 24.7729 7.7781 24.5298 7.44932 24.5633C7.18976 24.5885 6.96481 24.9678 6.82854 25.1439C6.34835 25.7601 6.24452 26.1919 7.04484 26.5377C8.15014 27.0156 9.32898 27.4537 10.4711 27.896C12.1517 28.5478 11.5526 28.4242 13.0321 26.4602C13.7004 25.5799 14.3515 24.5738 14.9788 23.6704C16.4669 21.5094 16.5556 21.7316 15.6277 20.8324C14.8187 20.0548 14.0595 19.2415 13.2484 18.4576C13.0604 18.2408 12.8184 18.0742 12.5454 17.9734C12.0911 17.7638 12.0263 17.9734 11.8013 18.2564C11.4487 18.7133 11.094 19.1137 10.7328 19.5601C10.3975 19.9793 10.0514 20.497 9.74644 20.9414C9.09754 21.8762 8.92017 21.9097 9.30302 22.4652C8.66493 22.3206 8.28641 22.8089 8.61519 23.2302C8.82284 23.4985 9.40252 23.8507 9.52798 24.033Z" fill="#3C8DFF"/>
<path fill-rule="evenodd" clip-rule="evenodd" d="M12.8613 28.78C12.8613 29.109 13.6054 29.4884 13.772 29.5157C14.144 29.5806 14.4403 28.9812 14.5874 28.7422C15.1844 27.7781 18.4484 23.4247 18.4592 22.995C18.0396 22.886 17.594 22.4647 17.289 22.4647C17.1376 22.4647 15.2688 25.2461 15.0352 25.5835C14.8016 25.921 12.8613 28.6165 12.8613 28.78Z" fill="#FFF700"/>
<path fill-rule="evenodd" clip-rule="evenodd" d="M27.1655 29.4554H27.2153C27.3688 29.4554 28.3984 27.8918 28.5542 27.6675L31.1152 23.9785C31.2515 23.7857 31.723 23.2365 31.6343 23.0081C31.5629 22.8215 30.9205 22.3939 30.6718 22.3939C30.3625 22.3939 30.038 22.9913 29.8996 23.2114C29.6984 23.53 29.467 23.8402 29.2507 24.163L26.6183 27.9358C26.5296 28.0657 25.9953 28.814 26.0883 28.9272C26.0883 28.9272 26.5793 29.1473 26.6421 29.185C26.7502 29.2458 27.0228 29.4554 27.1655 29.4554Z" fill="#FFF700"/>
<path fill-rule="evenodd" clip-rule="evenodd" d="M25.3073 28.1788C25.334 28.2811 25.395 28.372 25.4807 28.4372C25.5664 28.5025 25.672 28.5383 25.781 28.5393C25.8978 28.5393 26.8019 27.1643 26.9295 26.9777C27.3837 26.3175 30.2584 22.2596 30.2584 22.1569C30.2368 22.0474 30.1739 21.9495 30.0819 21.8825C29.99 21.8154 29.8755 21.784 29.7609 21.7943C29.5446 21.7943 29.2547 22.3623 29.1444 22.5216L27.4703 24.9425C27.2172 25.3177 25.3073 27.9796 25.3073 28.1788Z" fill="#FFF700"/>
<path fill-rule="evenodd" clip-rule="evenodd" d="M14.2761 29.7925C14.2761 29.935 14.5162 30.1299 14.7498 30.1299C14.9834 30.1299 15.2603 29.5661 15.3706 29.4068C15.5588 29.1385 15.7426 28.8765 15.9287 28.5978C16.2964 28.0444 16.6533 27.533 17.0275 26.988C17.4017 26.4431 17.7651 25.9274 18.1371 25.3867C18.3339 25.0995 19.2035 23.9823 19.2035 23.7098C19.2035 23.5589 18.9504 23.3871 18.8141 23.364C18.6303 23.3326 18.5416 23.5736 18.4507 23.7057C18.2474 24.0012 18.0571 24.2695 17.8494 24.5692C17.4449 25.1519 17.0383 25.7115 16.6403 26.29C16.3721 26.6904 14.2761 29.5934 14.2761 29.7925Z" fill="#FFF700"/>
<path fill-rule="evenodd" clip-rule="evenodd" d="M27.587 29.6962C27.587 29.8513 27.8271 30.0064 27.9591 30.0358C28.1754 30.0861 28.2359 29.8765 28.3398 29.7256C29.019 28.7404 32.5122 23.8882 32.5122 23.622C32.4859 23.5216 32.4246 23.4332 32.3386 23.3717C32.2527 23.3102 32.1474 23.2794 32.0407 23.2845C31.8525 23.2845 31.0565 24.6302 30.8921 24.8481C30.5071 25.3638 30.1502 25.9129 29.7825 26.4474C29.5186 26.8289 27.587 29.4908 27.587 29.6962Z" fill="#FFF700"/>
<path fill-rule="evenodd" clip-rule="evenodd" d="M12.4133 28.6357C12.701 28.6357 13.3845 27.3781 13.603 27.091C13.9923 26.5732 14.3449 26.0429 14.7169 25.4938C15.0306 25.0369 16.9146 22.4692 16.9146 22.201C16.9146 22.0417 16.6291 21.8635 16.482 21.8635C16.3068 21.8635 15.3832 23.3014 15.2339 23.5214L12.8308 26.9673C12.7053 27.1517 11.9656 28.118 12.0002 28.315C12.0364 28.3973 12.0931 28.4697 12.1652 28.5256C12.2373 28.5816 12.3225 28.6194 12.4133 28.6357Z" fill="#FFF700"/>
</g>
<defs>
<clipPath id="clip0_838_3">
<rect width="44.5192" height="52" fill="white"/>
</clipPath>
</defs>
</svg>
