<svg width="32" height="32" viewBox="0 0 32 32" fill="none" xmlns="http://www.w3.org/2000/svg">
<path d="M16 7.86683C17.5467 7.86683 18.8 9.12016 18.8 10.6668C18.8 12.2135 17.5467 13.4668 16 13.4668C14.4534 13.4668 13.2 12.2135 13.2 10.6668C13.2 9.12016 14.4534 7.86683 16 7.86683ZM16 19.8668C19.96 19.8668 24.1334 21.8135 24.1334 22.6668V24.1335H7.86671V22.6668C7.86671 21.8135 12.04 19.8668 16 19.8668ZM16 5.3335C13.0534 5.3335 10.6667 7.72016 10.6667 10.6668C10.6667 13.6135 13.0534 16.0002 16 16.0002C18.9467 16.0002 21.3334 13.6135 21.3334 10.6668C21.3334 7.72016 18.9467 5.3335 16 5.3335ZM16 17.3335C12.44 17.3335 5.33337 19.1202 5.33337 22.6668V26.6668H26.6667V22.6668C26.6667 19.1202 19.56 17.3335 16 17.3335Z" fill="#0069FF"/>
</svg>
