<svg width="64" height="64" viewBox="0 0 64 64" fill="none" xmlns="http://www.w3.org/2000/svg">
<rect width="64" height="64" fill="#F2F8FF"/>
<path d="M32 45.3333C37.3013 45.3333 42.6667 43.5013 42.6667 40V24C42.6667 20.4986 37.3013 18.6666 32 18.6666C26.6987 18.6666 21.3333 20.4986 21.3333 24V40C21.3333 43.5013 26.6987 45.3333 32 45.3333ZM32 42.6666C27.0373 42.6666 24 40.94 24 40V38.3093C26.0547 39.4266 29.036 40 32 40C34.964 40 37.9453 39.4266 40 38.3093V40C40 40.94 36.9627 42.6666 32 42.6666ZM32 21.3333C36.9627 21.3333 40 23.06 40 24C40 24.94 36.9627 26.6666 32 26.6666C27.0373 26.6666 24 24.94 24 24C24 23.06 27.0373 21.3333 32 21.3333ZM24 27.6426C26.0547 28.76 29.036 29.3333 32 29.3333C34.964 29.3333 37.9453 28.76 40 27.6426V29.3333C40 30.2733 36.9627 32 32 32C27.0373 32 24 30.2733 24 29.3333V27.6426ZM24 32.976C26.0547 34.0933 29.036 34.6666 32 34.6666C34.964 34.6666 37.9453 34.0933 40 32.976V34.6666C40 35.6066 36.9627 37.3333 32 37.3333C27.0373 37.3333 24 35.6066 24 34.6666V32.976Z" fill="#485BFF"/>
</svg>
