<svg width="136" height="32" viewBox="0 0 136 32" fill="none" xmlns="http://www.w3.org/2000/svg">
<path d="M7.34329 22.234C5.43529 22.234 3.85729 21.604 2.60929 20.344C1.37329 19.084 0.755289 17.536 0.755289 15.7C0.755289 13.864 1.37329 12.316 2.60929 11.056C3.85729 9.796 5.43529 9.166 7.34329 9.166C8.75929 9.166 10.0193 9.574 11.1233 10.39C12.2393 11.206 12.9713 12.256 13.3193 13.54H11.5373C11.2373 12.724 10.7033 12.064 9.93529 11.56C9.16729 11.044 8.30329 10.786 7.34329 10.786C5.89129 10.786 4.70329 11.254 3.77929 12.19C2.86729 13.126 2.41129 14.296 2.41129 15.7C2.41129 17.092 2.86729 18.256 3.77929 19.192C4.70329 20.128 5.89129 20.596 7.34329 20.596C8.30329 20.596 9.16729 20.344 9.93529 19.84C10.7033 19.336 11.2373 18.676 11.5373 17.86H13.3193C12.9713 19.144 12.2393 20.194 11.1233 21.01C10.0193 21.826 8.75929 22.234 7.34329 22.234ZM21.6931 13V22H20.1271V14.512H16.9951V18.184C16.9951 19.648 16.6951 20.674 16.0951 21.262C15.5071 21.85 14.6731 22.108 13.5931 22.036V20.56C14.2051 20.632 14.6611 20.488 14.9611 20.128C15.2731 19.768 15.4291 19.108 15.4291 18.148V13H16.9951H21.6931ZM25.1737 18.22C25.3057 19.036 25.6477 19.672 26.1997 20.128C26.7637 20.584 27.4537 20.812 28.2697 20.812C28.8217 20.812 29.3137 20.692 29.7457 20.452C30.1897 20.2 30.5077 19.882 30.6997 19.498H32.3377C32.0737 20.326 31.5757 20.992 30.8437 21.496C30.1117 21.988 29.2477 22.234 28.2517 22.234C26.8597 22.234 25.7317 21.79 24.8677 20.902C24.0037 20.002 23.5717 18.868 23.5717 17.5C23.5717 16.144 24.0037 15.016 24.8677 14.116C25.7317 13.216 26.8537 12.766 28.2337 12.766C29.5537 12.766 30.6157 13.234 31.4197 14.17C32.2357 15.094 32.6437 16.21 32.6437 17.518C32.6437 17.746 32.6257 17.98 32.5897 18.22H25.1737ZM25.1737 16.834H31.0417C30.9337 15.994 30.6157 15.352 30.0877 14.908C29.5597 14.464 28.9357 14.242 28.2157 14.242C27.3877 14.242 26.7037 14.476 26.1637 14.944C25.6357 15.412 25.3057 16.042 25.1737 16.834ZM41.3873 20.524H42.6293V22V24.592H41.0813V22H34.6913V24.592H33.1433V21.352V20.524H34.2233C34.8113 19.72 35.1053 18.604 35.1053 17.176V13H36.6533H40.5413H41.3873V20.524ZM36.0233 20.524H39.8393V14.458H36.6533V17.176C36.6533 18.508 36.4433 19.624 36.0233 20.524ZM49.681 13H51.355L48.007 22.558C47.647 23.578 47.113 24.352 46.405 24.88C45.697 25.42 44.893 25.66 43.993 25.6V24.142C45.157 24.226 45.961 23.626 46.405 22.342L46.567 21.946L42.985 13H44.641L47.359 19.84L49.681 13ZM60.5413 12.766C61.8613 12.766 62.9773 13.222 63.8893 14.134C64.8133 15.046 65.2753 16.168 65.2753 17.5C65.2753 18.832 64.8133 19.954 63.8893 20.866C62.9773 21.778 61.8613 22.234 60.5413 22.234C59.3533 22.234 58.3273 21.862 57.4633 21.118C56.5993 20.362 56.0833 19.402 55.9153 18.238H54.2413V22H52.6753V13H54.2413V16.744H55.9153C56.0833 15.592 56.5993 14.644 57.4633 13.9C58.3273 13.144 59.3533 12.766 60.5413 12.766ZM60.5413 20.704C61.4293 20.704 62.1793 20.398 62.7913 19.786C63.4033 19.174 63.7093 18.412 63.7093 17.5C63.7093 16.588 63.4033 15.826 62.7913 15.214C62.1793 14.602 61.4293 14.296 60.5413 14.296C59.6413 14.296 58.8853 14.602 58.2733 15.214C57.6613 15.826 57.3553 16.588 57.3553 17.5C57.3553 18.412 57.6613 19.174 58.2733 19.786C58.8853 20.398 59.6413 20.704 60.5413 20.704ZM78.3021 20.506H79.5441V22V24.592H77.9961V22H73.5141H68.7081H67.1421V13H68.7081V20.506H71.9481V13H73.5141V20.506H76.7361V13H78.3021V20.506ZM84.3421 12.766C85.3741 12.766 86.2141 13.072 86.8621 13.684C87.5221 14.296 87.8521 15.13 87.8521 16.186V22H86.3041V21.064C85.7161 21.844 84.8221 22.234 83.6221 22.234C82.7461 22.234 82.0021 21.982 81.3901 21.478C80.7781 20.974 80.4721 20.266 80.4721 19.354C80.4721 18.442 80.7781 17.734 81.3901 17.23C82.0021 16.726 82.7461 16.474 83.6221 16.474C84.7861 16.474 85.6801 16.822 86.3041 17.518V16.24C86.3041 15.568 86.1181 15.07 85.7461 14.746C85.3861 14.422 84.9181 14.26 84.3421 14.26C83.7901 14.26 83.3281 14.404 82.9561 14.692C82.5841 14.968 82.3981 15.364 82.3981 15.88H80.8501C80.8501 14.956 81.1801 14.206 81.8401 13.63C82.5001 13.054 83.3341 12.766 84.3421 12.766ZM84.0721 20.902C84.7321 20.902 85.2661 20.758 85.6741 20.47C86.0941 20.182 86.3041 19.81 86.3041 19.354C86.3041 18.874 86.0941 18.496 85.6741 18.22C85.2661 17.932 84.7321 17.788 84.0721 17.788C83.4001 17.788 82.8901 17.932 82.5421 18.22C82.2061 18.508 82.0381 18.886 82.0381 19.354C82.0381 19.822 82.2061 20.2 82.5421 20.488C82.8901 20.764 83.4001 20.902 84.0721 20.902ZM96.7432 13V22H95.1952V18.76H93.7912L91.0012 22H89.0932L92.0272 18.652C91.3672 18.484 90.8332 18.154 90.4252 17.662C90.0172 17.158 89.8132 16.57 89.8132 15.898C89.8132 15.07 90.1072 14.38 90.6952 13.828C91.2832 13.276 92.0212 13 92.9092 13H96.7432ZM92.9632 17.356H95.1952V14.458H92.9632C92.5192 14.458 92.1412 14.59 91.8292 14.854C91.5172 15.118 91.3612 15.472 91.3612 15.916C91.3612 16.348 91.5172 16.696 91.8292 16.96C92.1412 17.224 92.5192 17.356 92.9632 17.356Z" fill="#333333"/>
<path d="M115.453 9.88L121.56 16L115.453 22.12L117.333 24L125.333 16L117.333 8L115.453 9.88Z" fill="black"/>
</svg>
