<svg width="144" height="32" viewBox="0 0 144 32" fill="none" xmlns="http://www.w3.org/2000/svg">
<path d="M48.1778 9.4V22H46.5038V10.984H41.1578V22H39.4838V9.4H41.1578H48.1778ZM55.6804 12.766C56.9404 12.766 58.0144 13.228 58.9024 14.152C59.7904 15.064 60.2344 16.18 60.2344 17.5C60.2344 18.82 59.7904 19.942 58.9024 20.866C58.0144 21.778 56.9404 22.234 55.6804 22.234C54.1924 22.234 53.0584 21.646 52.2784 20.47V25.6H50.7124V13H52.2784V14.53C53.0584 13.354 54.1924 12.766 55.6804 12.766ZM55.4824 20.722C56.3824 20.722 57.1384 20.416 57.7504 19.804C58.3624 19.18 58.6684 18.412 58.6684 17.5C58.6684 16.588 58.3624 15.826 57.7504 15.214C57.1384 14.59 56.3824 14.278 55.4824 14.278C54.5704 14.278 53.8084 14.59 53.1964 15.214C52.5844 15.826 52.2784 16.588 52.2784 17.5C52.2784 18.412 52.5844 19.18 53.1964 19.804C53.8084 20.416 54.5704 20.722 55.4824 20.722ZM63.201 18.22C63.333 19.036 63.675 19.672 64.227 20.128C64.791 20.584 65.481 20.812 66.297 20.812C66.849 20.812 67.341 20.692 67.773 20.452C68.217 20.2 68.535 19.882 68.727 19.498H70.365C70.101 20.326 69.603 20.992 68.871 21.496C68.139 21.988 67.275 22.234 66.279 22.234C64.887 22.234 63.759 21.79 62.895 20.902C62.031 20.002 61.599 18.868 61.599 17.5C61.599 16.144 62.031 15.016 62.895 14.116C63.759 13.216 64.881 12.766 66.261 12.766C67.581 12.766 68.643 13.234 69.447 14.17C70.263 15.094 70.671 16.21 70.671 17.518C70.671 17.746 70.653 17.98 70.617 18.22H63.201ZM63.201 16.834H69.069C68.961 15.994 68.643 15.352 68.115 14.908C67.587 14.464 66.963 14.242 66.243 14.242C65.415 14.242 64.731 14.476 64.191 14.944C63.663 15.412 63.333 16.042 63.201 16.834ZM79.4147 20.524H80.6567V22V24.592H79.1087V22H72.7187V24.592H71.1707V21.352V20.524H72.2507C72.8387 19.72 73.1327 18.604 73.1327 17.176V13H74.6807H78.5687H79.4147V20.524ZM74.0507 20.524H77.8667V14.458H74.6807V17.176C74.6807 18.508 74.4707 19.624 74.0507 20.524ZM86.151 16.24C87.051 16.24 87.795 16.51 88.383 17.05C88.983 17.578 89.283 18.268 89.283 19.12C89.283 19.972 88.983 20.668 88.383 21.208C87.795 21.736 87.051 22 86.151 22H82.947H82.353V13H83.919V16.24H86.151ZM90.453 13H92.019V22H90.453V13ZM86.151 20.542C86.595 20.542 86.967 20.416 87.267 20.164C87.579 19.9 87.735 19.552 87.735 19.12C87.735 18.688 87.579 18.34 87.267 18.076C86.967 17.812 86.595 17.68 86.151 17.68H83.919V20.542H86.151ZM101.792 20.524H103.034V22V24.592H101.486V22H95.0956V24.592H93.5476V21.352V20.524H94.6276C95.2156 19.72 95.5096 18.604 95.5096 17.176V13H97.0576H100.946H101.792V20.524ZM96.4276 20.524H100.244V14.458H97.0576V17.176C97.0576 18.508 96.8476 19.624 96.4276 20.524ZM110.085 13H111.759L108.411 22.558C108.051 23.578 107.517 24.352 106.809 24.88C106.101 25.42 105.297 25.66 104.397 25.6V24.142C105.561 24.226 106.365 23.626 106.809 22.342L106.971 21.946L103.389 13H105.045L107.763 19.84L110.085 13ZM124.24 20.506H125.482V22V24.592H123.934V22H119.452H114.646H113.08V13H114.646V20.506H117.886V13H119.452V20.506H122.674V13H124.24V20.506ZM130.28 12.766C131.312 12.766 132.152 13.072 132.8 13.684C133.46 14.296 133.79 15.13 133.79 16.186V22H132.242V21.064C131.654 21.844 130.76 22.234 129.56 22.234C128.684 22.234 127.94 21.982 127.328 21.478C126.716 20.974 126.41 20.266 126.41 19.354C126.41 18.442 126.716 17.734 127.328 17.23C127.94 16.726 128.684 16.474 129.56 16.474C130.724 16.474 131.618 16.822 132.242 17.518V16.24C132.242 15.568 132.056 15.07 131.684 14.746C131.324 14.422 130.856 14.26 130.28 14.26C129.728 14.26 129.266 14.404 128.894 14.692C128.522 14.968 128.336 15.364 128.336 15.88H126.788C126.788 14.956 127.118 14.206 127.778 13.63C128.438 13.054 129.272 12.766 130.28 12.766ZM130.01 20.902C130.67 20.902 131.204 20.758 131.612 20.47C132.032 20.182 132.242 19.81 132.242 19.354C132.242 18.874 132.032 18.496 131.612 18.22C131.204 17.932 130.67 17.788 130.01 17.788C129.338 17.788 128.828 17.932 128.48 18.22C128.144 18.508 127.976 18.886 127.976 19.354C127.976 19.822 128.144 20.2 128.48 20.488C128.828 20.764 129.338 20.902 130.01 20.902ZM142.681 13V22H141.133V18.76H139.729L136.939 22H135.031L137.965 18.652C137.305 18.484 136.771 18.154 136.363 17.662C135.955 17.158 135.751 16.57 135.751 15.898C135.751 15.07 136.045 14.38 136.633 13.828C137.221 13.276 137.959 13 138.847 13H142.681ZM138.901 17.356H141.133V14.458H138.901C138.457 14.458 138.079 14.59 137.767 14.854C137.455 15.118 137.299 15.472 137.299 15.916C137.299 16.348 137.455 16.696 137.767 16.96C138.079 17.224 138.457 17.356 138.901 17.356Z" fill="#333333"/>
<path d="M20.5467 22.12L14.44 16L20.5467 9.88L18.6667 8L10.6667 16L18.6667 24L20.5467 22.12Z" fill="black"/>
</svg>
