<svg width="64" height="64" viewBox="0 0 64 64" fill="none" xmlns="http://www.w3.org/2000/svg">
<rect width="64" height="64" fill="#F2F8FF"/>
<path d="M34.276 20.3907C34.1524 20.2666 34.0055 20.1682 33.8437 20.1012C33.6819 20.0341 33.5085 19.9997 33.3333 20H21.3333C20.9797 20 20.6406 20.1405 20.3905 20.3905C20.1405 20.6406 20 20.9797 20 21.3333V33.3333C20 33.688 20.14 34.0267 20.3907 34.276L31.0573 44.9427C31.1809 45.0669 31.3278 45.1655 31.4895 45.2328C31.6513 45.3001 31.8248 45.3347 32 45.3347C32.1752 45.3347 32.3487 45.3001 32.5105 45.2328C32.6722 45.1655 32.8191 45.0669 32.9427 44.9427L44.9427 32.9427C45.0666 32.819 45.1649 32.672 45.232 32.5103C45.2991 32.3485 45.3336 32.1751 45.3336 32C45.3336 31.8249 45.2991 31.6515 45.232 31.4897C45.1649 31.328 45.0666 31.1811 44.9427 31.0573L34.276 20.3907ZM32 42.1147L22.6667 32.7813V22.6667H32.7813L42.1147 32L32 42.1147Z" fill="#485BFF"/>
<path d="M27.328 29.3333C28.4363 29.3333 29.3347 28.4349 29.3347 27.3266C29.3347 26.2184 28.4363 25.3199 27.328 25.3199C26.2198 25.3199 25.3213 26.2184 25.3213 27.3266C25.3213 28.4349 26.2198 29.3333 27.328 29.3333Z" fill="#485BFF"/>
</svg>
